Coordinates
version=1
nRows=19
nColumns=24
inDegrees=yes

Units are S.I. units (second, meters, Newtons, ...)
Angles are in degrees.

endheader
time	pelvis_tilt	pelvis_list	pelvis_rotation	pelvis_tx	pelvis_ty	pelvis_tz	hip_flexion_r	hip_adduction_r	hip_rotation_r	knee_angle_r	ankle_angle_r	subtalar_angle_r	mtp_angle_r	hip_flexion_l	hip_adduction_l	hip_rotation_l	knee_angle_l	ankle_angle_l	subtalar_angle_l	mtp_angle_l	lumbar_extension	lumbar_bending	lumbar_rotation
      0.61200000	     -0.66992983	      4.29159904	     -2.60008717	     -0.80711114	      1.04747266	      0.28802207	     23.22713809	      0.28109485	    -10.77415927	      2.52742676	      9.02343821	      2.39756612	     -0.17689687	    -18.33134604	      9.25984009	     -9.84345970	     -2.92205859	      7.72593283	      5.55847037	      0.10115692	      5.37474755	     -2.39250161	     -2.12977259
      0.61616667	     -0.65887295	      4.26605366	     -2.50186466	     -0.80108568	      1.04726991	      0.28809038	     23.10141469	      0.32829699	    -10.72199970	      2.28140481	      9.11266711	      2.44747803	     -0.18752272	    -18.48476893	      9.15996133	     -9.78953094	     -3.31645712	      7.64825431	      5.52233907	      0.09417813	      5.42610757	     -2.30278379	     -2.14154122
      0.62033333	     -0.59928637	      4.12110278	     -2.40463214	     -0.79469706	      1.04716210	      0.28811855	     22.87254011	      0.49296505	    -10.73033420	      2.03574145	      9.46736103	      2.50022494	     -0.22837260	    -18.75519939	      8.93878742	     -9.66984614	     -3.61417344	      7.34284817	      5.50410991	      0.07378550	      5.38827690	     -2.07531381	     -2.20457599
      0.62450000	     -0.59629182	      4.10134864	     -2.32905108	     -0.78860589	      1.04695388	      0.28818889	     22.76285958	      0.53657281	    -10.62664001	      1.71253310	      9.46142088	      2.52248561	     -0.23638686	    -18.88322166	      8.85048680	     -9.63250509	     -4.04218116	      7.26713559	      5.49133819	      0.07152001	      5.42394129	     -2.01968429	     -2.21519009
      0.62866667	     -0.51356699	      3.97090816	     -2.20761097	     -0.78219807	      1.04692622	      0.28821583	     22.48415392	      0.67652116	    -10.45661570	      1.47126343	      9.58830037	      2.44535076	     -0.27631082	    -19.12965660	      8.62585855	     -9.58245976	     -4.42409170	      6.90038544	      5.53614989	      0.06581530	      5.35960593	     -1.83396992	     -2.28993189
      0.63283333	     -0.36920951	      3.86597082	     -2.12885277	     -0.77593792	      1.04696873	      0.28829579	     22.15855796	      0.80061584	    -10.19284183	      1.20538487	      9.53315689	      2.19334298	     -0.34042126	    -19.41069871	      8.44068697	     -9.61592128	     -4.84269600	      6.57444238	      5.56945663	      0.07527896	      5.20546328	     -1.66289006	     -2.39917033
      0.63700000	     -0.36434628	      3.83563380	     -2.05570589	     -0.76974032	      1.04681224	      0.28836260	     22.03154991	      0.84740220	    -10.04902594	      0.84194052	      9.48320724	      2.17617128	     -0.34741562	    -19.51703202	      8.33684311	     -9.56624270	     -5.31826948	      6.50833222	      5.56968946	      0.07844515	      5.26678089	     -1.60541499	     -2.40780981
      0.64116667	     -0.22807886	      3.68234902	     -1.98671253	     -0.76328754	      1.04688390	      0.28849558	     21.66237433	      1.03019261	     -9.61294105	      0.64483790	      9.18969812	      1.56686116	     -0.42102553	    -19.78966046	      8.09280183	     -9.62116124	     -5.73826931	      5.98887485	      5.72739497	      0.12271037	      5.21443699	     -1.32842268	     -2.54855509
      0.64533333	     -0.24359935	      3.62959824	     -1.84911510	     -0.75698157	      1.04679369	      0.28854934	     21.50812497	      1.08123524	     -9.41313887	      0.34165752	      9.11505188	      1.55643165	     -0.42771054	    -19.84057159	      7.92799947	     -9.60448764	     -6.28321346	      5.91944955	      5.71269284	      0.13019580	      5.24381773	     -1.28727593	     -2.55398602
      0.64950000	     -0.05183678	      3.44806996	     -1.80605962	     -0.75054731	      1.04698718	      0.28891788	     21.03307088	      1.32146894	     -8.69026164	      0.25110280	      8.47558940	      0.30961400	     -0.53942731	    -20.11687643	      7.62744677	     -9.92202597	     -6.80169193	      5.44153822	      5.95166388	      0.28405114	      4.99414027	     -1.10251597	     -2.74658515
      0.65366667	     -0.05872687	      3.39146408	     -1.67486708	     -0.74422652	      1.04696775	      0.28895973	     20.85565491	      1.36868694	     -8.46125393	     -0.03303637	      8.36761446	      0.34215134	     -0.54498471	    -20.15452230	      7.45906621	     -9.84419404	     -7.37909262	      5.32221056	      5.97625455	      0.29660766	      5.09263398	     -1.00833756	     -2.74889762
      0.65783333	     -0.01995840	      3.20261979	     -1.59077328	     -0.73752058	      1.04703277	      0.28912056	     20.55634765	      1.57669387	     -8.12355449	     -0.17011561	      7.66823203	     -0.05989901	     -0.58625920	    -20.27389628	      7.15260861	     -9.94664173	     -7.89035261	      4.66948249	      6.19421034	      0.38372433	      5.20223033	     -0.68905079	     -2.83423255
      0.66200000	      0.14827045	      3.03587140	     -1.53071163	     -0.73114846	      1.04728862	      0.28960193	     20.08783346	      1.79900655	     -7.29661619	     -0.22144203	      7.03916834	     -1.36037468	     -0.68116575	    -20.45830515	      6.83483585	    -10.27026990	     -8.53933724	      4.41379662	      6.55212443	      0.74645036	      4.96710956	     -0.56152419	     -2.97313626
      0.66616667	      0.13730946	      2.88338591	     -1.41042080	     -0.72454274	      1.04736786	      0.28973190	     19.87740849	      1.94662923	     -7.18388991	     -0.42788893	      6.51540541	     -1.41014020	     -0.70322049	    -20.45959212	      6.54312004	    -10.37353240	     -9.16889931	      3.93744026	      6.63913555	      0.83971456	      5.09946053	     -0.33952587	     -2.99384110
      0.67033333	      0.16375940	      2.72004301	     -1.29964206	     -0.71797842	      1.04753776	      0.28992562	     19.62105003	      2.11015783	     -7.00621645	     -0.61457778	      5.87547865	     -1.66419655	     -0.72751909	    -20.47206414	      6.23091673	    -10.55586682	     -9.83427543	      3.39380709	      6.76278983	      0.98777369	      5.14743315	     -0.11869930	     -3.05151419
      0.67450000	      0.20372768	      2.54313157	     -1.19226708	     -0.71141629	      1.04775046	      0.29015639	     19.34965847	      2.28900058	     -6.81772722	     -0.79610030	      5.23563164	     -1.96734693	     -0.74561180	    -20.48027422	      5.89788798	    -10.74175431	    -10.53643746	      2.85872022	      6.88967449	      1.14738379	      5.17600518	      0.11338450	     -3.12002426
      0.67866667	      0.26162444	      2.36080842	     -1.08915348	     -0.70486784	      1.04802237	      0.29041137	     19.06587134	      2.47148661	     -6.64153339	     -0.99093997	      4.59223953	     -2.28702094	     -0.75824184	    -20.48516776	      5.55243295	    -10.94981933	    -11.27272876	      2.30251977	      7.02416353	      1.32321241	      5.17888325	      0.34109561	     -3.18937848
      0.68283333	      0.46201803	      2.13805653	     -1.00279337	     -0.69840062	      1.04850296	      0.29079738	     18.58242761	      2.71196947	     -6.08413264	     -1.08405064	      3.83829905	     -3.12308555	     -0.76634124	    -20.62535809	      5.15093656	    -11.19265550	    -12.03713098	      1.79403910	      7.30687923	      1.88292778	      5.00313623	      0.55794660	     -3.31364024
      0.68700000	      0.45062107	      1.95516382	     -0.90864766	     -0.69182402	      1.04872951	      0.29104580	     18.43095403	      2.88801526	     -6.20414827	     -1.40774868	      3.34252606	     -3.22563462	     -0.76913365	    -20.50369553	      4.79675559	    -11.46360611	    -12.86780117	      1.21455831	      7.33951068	      2.04041266	      5.06063941	      0.82143190	     -3.34110007
